<svg xmlns="http://www.w3.org/2000/svg" fill="none" viewBox="0 0 32 32"><path fill="#fff" d="M16 24.67c-4.1 0-7.43-2.54-7.43-5.66 0-.98 1.05-1.77 2.34-1.77h10.18c1.3 0 2.34.8 2.34 1.77 0 3.12-3.33 5.66-7.43 5.66Zm-5.1-5.82c-.1 0-.2.08-.2.16 0 2.23 2.37 4.04 5.3 4.04 2.93 0 5.3-1.8 5.3-4.04 0-.08-.1-.16-.2-.16H10.9ZM20.02 14.14a2.17 2.17 0 1 1 .01-4.34 2.17 2.17 0 0 1 0 4.34ZM11.98 14.14a2.17 2.17 0 1 1 0-4.34 2.17 2.17 0 0 1 0 4.34Z"/><path fill="#fff" fill-rule="evenodd" d="M4.55 16a11.45 11.45 0 1 0 22.9 0 11.45 11.45 0 0 0-22.9 0ZM16 3a13 13 0 1 0 0 26 13 13 0 0 0 0-26Z" clipRule="evenodd"/></svg>