<svg xmlns="http://www.w3.org/2000/svg" fill="none" viewBox="0 0 32 32"><path fill="#fff" d="M23.8 29.2c-.4 0-.8-.1-1.2-.4l-5.3-3.1-1.7-.2a1 1 0 0 1-.8-.6 1 1 0 0 1 .2-1c.9-1 1.3-2.3 1.3-3.6 0-3.2-2.8-5.8-6.3-5.8-1.3 0-2.6.3-3.6 1a1 1 0 0 1-1.6-.7v-1.1c0-6.6 5.7-12 12.7-12 7 0 12.8 5.4 12.8 12 0 3.6-1.7 7-4.6 9.2l.4 3.6a2.3 2.3 0 0 1-2.3 2.7Zm-6.3-5.6c.2 0 .4 0 .6.2l5.6 3.3h.3s.2-.1.1-.3l-.5-4.2c0-.4.1-.8.4-1 2.8-1.9 4.3-4.8 4.3-8 0-5.5-4.8-10-10.8-10-5.7 0-10.4 4.2-10.7 9.4 1-.3 2-.6 3.2-.6 4.6 0 8.3 3.6 8.3 7.9 0 1.2-.2 2.3-.8 3.3Z"/><path fill="#fff" d="M6.1 30.3c-.3 0-.7 0-1-.3-.6-.3-.9-1-.8-1.7l.2-2a7.7 7.7 0 0 1-2.8-6c0-2.6 1.3-5 3.6-6.5 1.4-.9 3-1.3 4.7-1.3 4.6 0 8.3 3.5 8.3 7.8 0 1.8-.6 3.5-1.8 4.9a8.4 8.4 0 0 1-6.2 3L7 30c-.3.2-.6.2-.9.2ZM10 14.5c-1.3 0-2.6.3-3.6 1a5.6 5.6 0 0 0-.2 9.4c.3.3.4.6.4 1l-.3 2.3 3.2-2h.5c2 0 3.8-1 5-2.3.9-1 1.3-2.3 1.3-3.6 0-3.2-2.8-5.8-6.3-5.8Z"/></svg>