<?xml version="1.0" encoding="UTF-8"?>
<svg viewBox="0 0 32 32" xmlns="http://www.w3.org/2000/svg">
<path d="m15.458 26.562c-6.1209 0-11.104-4.9833-11.104-11.104 0-6.1209 4.9833-11.104 11.104-11.104 6.1208 0 11.104 4.9833 11.104 11.104 0 6.1208-4.9833 11.104-11.104 11.104zm0-20.583c-5.2325 0-9.4792 4.2575-9.4792 9.4792 0 5.2216 4.2467 9.4791 9.4792 9.4791s9.4791-4.2575 9.4791-9.4791c0-5.2217-4.2466-9.4792-9.4791-9.4792z" fill="#fff"/>
<path d="m26.833 27.646c-0.2058 0-0.4116-0.0758-0.5741-0.2383l-2.1667-2.1667c-0.3142-0.3141-0.3142-0.8341 0-1.1483s0.8342-0.3142 1.1483 0l2.1667 2.1667c0.3142 0.3141 0.3142 0.8341 0 1.1483-0.1625 0.1625-0.3683 0.2383-0.5742 0.2383z" fill="#fff"/>
</svg>
