<svg xmlns="http://www.w3.org/2000/svg" fill="none" viewBox="0 0 32 32"><path fill="#fff" d="M7.9 28.1c-1.4 0-2.3-.4-2.9-1-1-1-1.8-3.4.6-8.3l1.1-2.2v-1.1l-1-2.2C3.1 8.4 3.8 6.1 5 5c1.1-1 3.4-1.8 8.3.6L24 11c2.7 1.3 4.1 3.2 4.1 5.2s-1.4 3.8-4 5.1l-10.7 5.3A12.7 12.7 0 0 1 8 28.1ZM7.9 6c-.7 0-1.2.1-1.6.4-.9 1-.5 3.2 1 6.2l1 2.2c.5.8.5 2 0 2.8l-1 2.1c-1.5 3-1.9 5.3-1 6.2 1 .9 3.2.5 6.2-1l10.6-5.3c2-1 3-2.2 3-3.4 0-1.3-1-2.6-3-3.5L12.5 7.3c-1.9-1-3.5-1.4-4.6-1.4Z"/><path fill="#fff" d="M14.6 17H7.9a1 1 0 0 1-1-1c0-.4.5-.9 1-.9h6.7c.5 0 .9.5.9 1s-.4.9-1 .9Z"/></svg>