<svg xmlns="http://www.w3.org/2000/svg" fill="none" viewBox="0 0 32 32"><path fill="#fff" d="M16 30.2a5 5 0 0 1-2.5-.6l-7.3-4.3C3.2 23.3 3 23 3 20V12c0-3.1.2-3.4 3-5.4l7.5-4.3c1.4-.8 3.6-.8 5 0l7.3 4.3c3 2 3.2 2.3 3.2 5.4v7.7c0 3.2-.2 3.5-3 5.5l-7.5 4.3c-.7.4-1.6.6-2.5.6Zm0-26.4a3 3 0 0 0-1.5.4L7.2 8.4C5 9.9 5 9.9 5 12.1v7.7c0 2.3 0 2.3 2.2 3.8l7.3 4.2c.8.5 2.2.5 3 0l7.3-4.2C27 22 27 22 27 19.8v-7.7c0-2.2 0-2.2-2.2-3.7l-7.3-4.2a3 3 0 0 0-1.5-.4Z"/><path fill="#fff" d="M16 21a5 5 0 1 1 0-10 5 5 0 0 1 0 10Zm0-8a3 3 0 1 0 0 6 3 3 0 0 0 0-6Z"/></svg>