<svg xmlns="http://www.w3.org/2000/svg" fill="none" viewBox="0 0 32 32"><path fill="#fff" d="M19.6 29h-7.2c-1.6 0-3-.2-4-.5a1 1 0 0 1-.7-1c.3-3.6 4-6.4 8.3-6.4 4.4 0 8 2.8 8.3 6.5 0 .4-.2.8-.6.9-1.1.3-2.5.5-4 .5Zm-10-2 2.8.2h7.2c1 0 2 0 2.8-.2-.7-2.4-3.3-4-6.4-4-3.1 0-5.7 1.6-6.4 4Z"/><path fill="#fff" fillRule="evenodd" d="M5.2 5.2C6.8 3.6 9.2 3 12.4 3h7.2c3.1 0 5.6.6 7.2 2.2 1.6 1.6 2.2 4 2.2 7.2v7.2c0 2.4-.4 4.3-1.2 5.8a6.5 6.5 0 0 1-4.1 3.1 1 1 0 0 1-1.2-.8c-.2-2.5-2.9-4.8-6.5-4.8s-6.3 2.3-6.5 4.8a1 1 0 0 1-1.2.8 6.5 6.5 0 0 1-4-3C3.2 23.8 3 22 3 19.5v-7.2c0-3.1.6-5.6 2.2-7.2Zm1.3 1.3c-1 1.1-1.7 3-1.7 5.9v7.2c0 2.2.4 3.8 1 5 .5.8 1.1 1.4 2 1.8 1-3.1 4.4-5.3 8.2-5.3 3.8 0 7.2 2.2 8.1 5.3 1-.4 1.6-1 2.1-1.9.6-1 1-2.7 1-4.9v-7.2c0-3-.6-4.8-1.7-5.9-1.1-1-3-1.7-5.9-1.7h-7.2c-3 0-4.8.6-5.9 1.7ZM16 11a3.4 3.4 0 1 0 0 6.9 3.4 3.4 0 0 0 0-7Zm-5.2 3.4a5.2 5.2 0 1 1 10.4 0 5.2 5.2 0 0 1-10.4 0Z" clip-rule="evenodd"/><path fill="#fff" d="M16 19.5A5.2 5.2 0 1 1 16 9a5.2 5.2 0 0 1 0 10.5Zm0-8.6a3.4 3.4 0 1 0 0 6.8 3.4 3.4 0 0 0 0-6.8Z"/></svg>